<!-- Created with Inkscape (http://www.inkscape.org/) -->
<svg width="229.07" height="229.07" version="1.1" viewBox="0 0 229.07 229.07" xmlns="http://www.w3.org/2000/svg">
 <g transform="translate(-517.26 -242.48)">
  <path d="m746.33 471.55h-229.07v-229.07h229.07z" fill="#ee2722"/>
  <g fill="#fff">
   <path d="m626.58 357.3c0-16.772-20.872-16.627-20.872-16.627h-0.0733s-21.593-0.14533-21.593 16.627c0 16.771 19.363 16.051 21.231 16.051 1.8733 0 21.308 0.72 21.308-16.051m-21.236 10.655s-12.596 0.0707-12.452-10.869c0.14533-10.799 12.816-10.799 12.816-10.799s12.016-0.432 12.016 10.799c0 11.3-12.38 10.869-12.38 10.869"/>
   <path d="m661.85 373.35c1.872 0 21.307 0.72133 21.307-16.051s-20.873-16.627-20.873-16.627h-0.0747s-21.593-0.14534-21.593 16.627 19.363 16.051 21.235 16.051m0.43333-27.064s12.02-0.432 12.02 10.799c0 11.3-12.384 10.871-12.384 10.871s-12.595 0.0707-12.449-10.871c0.14-10.799 12.813-10.799 12.813-10.799"/>
   <path d="m633.57 360.85c0.44 0 5.0093 0.17067 5.0093-3.7733 0-3.9467-4.908-3.9093-4.908-3.9093h-0.016s-5.0787-0.0373-5.0787 3.9093c0 3.944 4.552 3.7733 4.9933 3.7733"/>
   <path d="m569.57 373.35c5.1813 0 10.723-1.224 10.723-1.224l1.152-6.26c-6.7667 2.3747-11.801 2.012-11.801 2.012s-12.597 0.14667-12.455-10.795c0.14266-10.799 12.811-10.799 12.811-10.799 5.9773 0 11.085 1.7293 11.085 1.7293l-0.72-6.4067c-4.9653-1.0813-10.436-0.93466-10.436-0.93466s-21.595-0.14667-21.595 16.627c0 16.772 19.363 16.051 21.236 16.051"/>
   <path d="m715.26 351.33c0-10.007-9.0707-10.652-9.0707-10.652h-19.003c0.29066 2.5187-0.32134 32.272-0.32134 32.272h8.2787c-0.0747-2.952 0.10933-27.307 0.10933-27.307s1.2947-0.144 5.4653-0.144c4.1773 0 6.3373 2.52 6.3373 5.4013 0 2.876-3.6 3.956-5.184 4.1-1.58 0.144-6.116 0.0707-6.116 0.0707l2.0173 5.112h4.316c0.216 0 13.171 1.1533 13.171-8.8533"/>
  </g>
 </g>
</svg>
